{
	"asset":{
		"generator":"Khronos glTF Blender I/O v4.2.0",
		"version":"2.0"
	},
	"scene":0,
	"scenes":[
		{
			"name":"Scene",
			"nodes":[
				9
			]
		}
	],
	"nodes":[
		{
			"name":"bone5",
			"rotation":[
				-4.768371297814156e-08,
				0,
				0,
				1
			],
			"translation":[
				2.900404930114746,
				-0.5073620676994324,
				6.716763496398926
			]
		},
		{
			"name":"bone7",
			"rotation":[
				-4.768371297814156e-08,
				0,
				0,
				1
			],
			"translation":[
				-2.9000000953674316,
				-0.5073620676994324,
				6.716763496398926
			]
		},
		{
			"children":[
				0,
				1
			],
			"name":"bone2",
			"translation":[
				0,
				2.356290817260742,
				-1.0299677200009683e-07
			]
		},
		{
			"name":"bone4",
			"rotation":[
				-0.18137699365615845,
				-0.20958609879016876,
				-0.3888319432735443,
				0.8786271810531616
			],
			"translation":[
				8.295997619628906,
				0.7692527174949646,
				1.5430529117584229
			]
		},
		{
			"name":"bone6",
			"rotation":[
				0.3888319730758667,
				-0.8786270022392273,
				0.18137703835964203,
				0.209586963057518
			],
			"scale":[
				1,
				1.0000001192092896,
				0.9999999403953552
			],
			"translation":[
				-8.295999526977539,
				0.7692479491233826,
				1.543049693107605
			]
		},
		{
			"children":[
				3,
				4
			],
			"name":"bone3",
			"rotation":[
				-8.881784197001252e-16,
				0,
				0,
				1
			],
			"translation":[
				0,
				-3.576932907104492,
				1.5635276895409334e-07
			]
		},
		{
			"children":[
				2,
				5
			],
			"name":"bone1",
			"translation":[
				0,
				5.76031494140625,
				-2.5179144813591847e-07
			]
		},
		{
			"children":[
				6
			],
			"name":"bone0",
			"rotation":[
				4.0730171235736634e-08,
				0,
				0,
				1
			]
		},
		{
			"mesh":0,
			"name":"e0005_00",
			"skin":0
		},
		{
			"children":[
				8,
				7
			],
			"name":"e0005_00_skeleton"
		}
	],
	"animations":[
		{
			"channels":[
				{
					"sampler":0,
					"target":{
						"node":7,
						"path":"translation"
					}
				},
				{
					"sampler":1,
					"target":{
						"node":7,
						"path":"rotation"
					}
				},
				{
					"sampler":2,
					"target":{
						"node":7,
						"path":"scale"
					}
				},
				{
					"sampler":3,
					"target":{
						"node":6,
						"path":"translation"
					}
				},
				{
					"sampler":4,
					"target":{
						"node":6,
						"path":"rotation"
					}
				},
				{
					"sampler":5,
					"target":{
						"node":6,
						"path":"scale"
					}
				},
				{
					"sampler":6,
					"target":{
						"node":2,
						"path":"translation"
					}
				},
				{
					"sampler":7,
					"target":{
						"node":2,
						"path":"rotation"
					}
				},
				{
					"sampler":8,
					"target":{
						"node":2,
						"path":"scale"
					}
				},
				{
					"sampler":9,
					"target":{
						"node":0,
						"path":"translation"
					}
				},
				{
					"sampler":10,
					"target":{
						"node":0,
						"path":"rotation"
					}
				},
				{
					"sampler":11,
					"target":{
						"node":0,
						"path":"scale"
					}
				},
				{
					"sampler":12,
					"target":{
						"node":1,
						"path":"translation"
					}
				},
				{
					"sampler":13,
					"target":{
						"node":1,
						"path":"rotation"
					}
				},
				{
					"sampler":14,
					"target":{
						"node":1,
						"path":"scale"
					}
				},
				{
					"sampler":15,
					"target":{
						"node":5,
						"path":"translation"
					}
				},
				{
					"sampler":16,
					"target":{
						"node":5,
						"path":"rotation"
					}
				},
				{
					"sampler":17,
					"target":{
						"node":5,
						"path":"scale"
					}
				},
				{
					"sampler":18,
					"target":{
						"node":3,
						"path":"translation"
					}
				},
				{
					"sampler":19,
					"target":{
						"node":3,
						"path":"rotation"
					}
				},
				{
					"sampler":20,
					"target":{
						"node":3,
						"path":"scale"
					}
				},
				{
					"sampler":21,
					"target":{
						"node":4,
						"path":"translation"
					}
				},
				{
					"sampler":22,
					"target":{
						"node":4,
						"path":"rotation"
					}
				},
				{
					"sampler":23,
					"target":{
						"node":4,
						"path":"scale"
					}
				}
			],
			"name":"Armature.001Action",
			"samplers":[
				{
					"input":7,
					"interpolation":"STEP",
					"output":8
				},
				{
					"input":7,
					"interpolation":"STEP",
					"output":9
				},
				{
					"input":7,
					"interpolation":"STEP",
					"output":10
				},
				{
					"input":7,
					"interpolation":"STEP",
					"output":11
				},
				{
					"input":7,
					"interpolation":"STEP",
					"output":12
				},
				{
					"input":7,
					"interpolation":"STEP",
					"output":13
				},
				{
					"input":7,
					"interpolation":"STEP",
					"output":14
				},
				{
					"input":7,
					"interpolation":"STEP",
					"output":15
				},
				{
					"input":7,
					"interpolation":"STEP",
					"output":16
				},
				{
					"input":7,
					"interpolation":"STEP",
					"output":17
				},
				{
					"input":7,
					"interpolation":"STEP",
					"output":18
				},
				{
					"input":7,
					"interpolation":"STEP",
					"output":19
				},
				{
					"input":7,
					"interpolation":"STEP",
					"output":20
				},
				{
					"input":7,
					"interpolation":"STEP",
					"output":21
				},
				{
					"input":7,
					"interpolation":"STEP",
					"output":22
				},
				{
					"input":7,
					"interpolation":"STEP",
					"output":23
				},
				{
					"input":7,
					"interpolation":"STEP",
					"output":24
				},
				{
					"input":7,
					"interpolation":"STEP",
					"output":25
				},
				{
					"input":7,
					"interpolation":"STEP",
					"output":26
				},
				{
					"input":7,
					"interpolation":"STEP",
					"output":27
				},
				{
					"input":7,
					"interpolation":"STEP",
					"output":28
				},
				{
					"input":7,
					"interpolation":"STEP",
					"output":29
				},
				{
					"input":7,
					"interpolation":"STEP",
					"output":30
				},
				{
					"input":7,
					"interpolation":"STEP",
					"output":31
				}
			]
		},
		{
			"channels":[
				{
					"sampler":0,
					"target":{
						"node":7,
						"path":"translation"
					}
				},
				{
					"sampler":1,
					"target":{
						"node":7,
						"path":"rotation"
					}
				},
				{
					"sampler":2,
					"target":{
						"node":7,
						"path":"scale"
					}
				},
				{
					"sampler":3,
					"target":{
						"node":6,
						"path":"translation"
					}
				},
				{
					"sampler":4,
					"target":{
						"node":6,
						"path":"rotation"
					}
				},
				{
					"sampler":5,
					"target":{
						"node":6,
						"path":"scale"
					}
				},
				{
					"sampler":6,
					"target":{
						"node":2,
						"path":"translation"
					}
				},
				{
					"sampler":7,
					"target":{
						"node":2,
						"path":"rotation"
					}
				},
				{
					"sampler":8,
					"target":{
						"node":2,
						"path":"scale"
					}
				},
				{
					"sampler":9,
					"target":{
						"node":0,
						"path":"translation"
					}
				},
				{
					"sampler":10,
					"target":{
						"node":0,
						"path":"rotation"
					}
				},
				{
					"sampler":11,
					"target":{
						"node":0,
						"path":"scale"
					}
				},
				{
					"sampler":12,
					"target":{
						"node":1,
						"path":"translation"
					}
				},
				{
					"sampler":13,
					"target":{
						"node":1,
						"path":"rotation"
					}
				},
				{
					"sampler":14,
					"target":{
						"node":1,
						"path":"scale"
					}
				},
				{
					"sampler":15,
					"target":{
						"node":5,
						"path":"translation"
					}
				},
				{
					"sampler":16,
					"target":{
						"node":5,
						"path":"rotation"
					}
				},
				{
					"sampler":17,
					"target":{
						"node":5,
						"path":"scale"
					}
				},
				{
					"sampler":18,
					"target":{
						"node":3,
						"path":"translation"
					}
				},
				{
					"sampler":19,
					"target":{
						"node":3,
						"path":"rotation"
					}
				},
				{
					"sampler":20,
					"target":{
						"node":3,
						"path":"scale"
					}
				},
				{
					"sampler":21,
					"target":{
						"node":4,
						"path":"translation"
					}
				},
				{
					"sampler":22,
					"target":{
						"node":4,
						"path":"rotation"
					}
				},
				{
					"sampler":23,
					"target":{
						"node":4,
						"path":"scale"
					}
				}
			],
			"name":"e0005_00_skeletonAction",
			"samplers":[
				{
					"input":32,
					"interpolation":"STEP",
					"output":33
				},
				{
					"input":32,
					"interpolation":"STEP",
					"output":34
				},
				{
					"input":32,
					"interpolation":"STEP",
					"output":35
				},
				{
					"input":32,
					"interpolation":"STEP",
					"output":36
				},
				{
					"input":32,
					"interpolation":"STEP",
					"output":37
				},
				{
					"input":32,
					"interpolation":"STEP",
					"output":38
				},
				{
					"input":39,
					"interpolation":"LINEAR",
					"output":40
				},
				{
					"input":32,
					"interpolation":"STEP",
					"output":41
				},
				{
					"input":32,
					"interpolation":"STEP",
					"output":42
				},
				{
					"input":32,
					"interpolation":"STEP",
					"output":43
				},
				{
					"input":32,
					"interpolation":"STEP",
					"output":44
				},
				{
					"input":32,
					"interpolation":"STEP",
					"output":45
				},
				{
					"input":32,
					"interpolation":"STEP",
					"output":46
				},
				{
					"input":32,
					"interpolation":"STEP",
					"output":47
				},
				{
					"input":32,
					"interpolation":"STEP",
					"output":48
				},
				{
					"input":32,
					"interpolation":"STEP",
					"output":49
				},
				{
					"input":32,
					"interpolation":"STEP",
					"output":50
				},
				{
					"input":32,
					"interpolation":"STEP",
					"output":51
				},
				{
					"input":32,
					"interpolation":"STEP",
					"output":52
				},
				{
					"input":32,
					"interpolation":"STEP",
					"output":53
				},
				{
					"input":32,
					"interpolation":"STEP",
					"output":54
				},
				{
					"input":32,
					"interpolation":"STEP",
					"output":55
				},
				{
					"input":32,
					"interpolation":"STEP",
					"output":56
				},
				{
					"input":32,
					"interpolation":"STEP",
					"output":57
				}
			]
		}
	],
	"materials":[
		{
			"alphaMode":"BLEND",
			"doubleSided":true,
			"name":"BodyMT",
			"pbrMetallicRoughness":{
				"baseColorTexture":{
					"index":0
				},
				"metallicFactor":0,
				"roughnessFactor":0.5
			}
		}
	],
	"meshes":[
		{
			"name":"e0005_00",
			"primitives":[
				{
					"attributes":{
						"POSITION":0,
						"NORMAL":1,
						"TEXCOORD_0":2,
						"JOINTS_0":3,
						"WEIGHTS_0":4
					},
					"indices":5,
					"material":0
				}
			]
		}
	],
	"textures":[
		{
			"sampler":0,
			"source":0
		}
	],
	"images":[
		{
			"mimeType":"image/png",
			"name":"e0005_00",
			"uri":"e0005_00.png"
		}
	],
	"skins":[
		{
			"inverseBindMatrices":6,
			"joints":[
				7,
				6,
				2,
				0,
				1,
				5,
				3,
				4
			],
			"name":"e0005_00_skeleton"
		}
	],
	"accessors":[
		{
			"bufferView":0,
			"componentType":5126,
			"count":1175,
			"max":[
				9.870697975158691,
				15.209549903869629,
				9.045193672180176
			],
			"min":[
				-9.870697975158691,
				0.10945220291614532,
				-9.045191764831543
			],
			"type":"VEC3"
		},
		{
			"bufferView":1,
			"componentType":5126,
			"count":1175,
			"type":"VEC3"
		},
		{
			"bufferView":2,
			"componentType":5126,
			"count":1175,
			"type":"VEC2"
		},
		{
			"bufferView":3,
			"componentType":5121,
			"count":1175,
			"type":"VEC4"
		},
		{
			"bufferView":4,
			"componentType":5126,
			"count":1175,
			"type":"VEC4"
		},
		{
			"bufferView":5,
			"componentType":5123,
			"count":5298,
			"type":"SCALAR"
		},
		{
			"bufferView":6,
			"componentType":5126,
			"count":8,
			"type":"MAT4"
		},
		{
			"bufferView":7,
			"componentType":5126,
			"count":2,
			"max":[
				10.416666666666666
			],
			"min":[
				0.041666666666666664
			],
			"type":"SCALAR"
		},
		{
			"bufferView":8,
			"componentType":5126,
			"count":2,
			"type":"VEC3"
		},
		{
			"bufferView":9,
			"componentType":5126,
			"count":2,
			"type":"VEC4"
		},
		{
			"bufferView":10,
			"componentType":5126,
			"count":2,
			"type":"VEC3"
		},
		{
			"bufferView":11,
			"componentType":5126,
			"count":2,
			"type":"VEC3"
		},
		{
			"bufferView":12,
			"componentType":5126,
			"count":2,
			"type":"VEC4"
		},
		{
			"bufferView":13,
			"componentType":5126,
			"count":2,
			"type":"VEC3"
		},
		{
			"bufferView":14,
			"componentType":5126,
			"count":2,
			"type":"VEC3"
		},
		{
			"bufferView":15,
			"componentType":5126,
			"count":2,
			"type":"VEC4"
		},
		{
			"bufferView":16,
			"componentType":5126,
			"count":2,
			"type":"VEC3"
		},
		{
			"bufferView":17,
			"componentType":5126,
			"count":2,
			"type":"VEC3"
		},
		{
			"bufferView":18,
			"componentType":5126,
			"count":2,
			"type":"VEC4"
		},
		{
			"bufferView":19,
			"componentType":5126,
			"count":2,
			"type":"VEC3"
		},
		{
			"bufferView":20,
			"componentType":5126,
			"count":2,
			"type":"VEC3"
		},
		{
			"bufferView":21,
			"componentType":5126,
			"count":2,
			"type":"VEC4"
		},
		{
			"bufferView":22,
			"componentType":5126,
			"count":2,
			"type":"VEC3"
		},
		{
			"bufferView":23,
			"componentType":5126,
			"count":2,
			"type":"VEC3"
		},
		{
			"bufferView":24,
			"componentType":5126,
			"count":2,
			"type":"VEC4"
		},
		{
			"bufferView":25,
			"componentType":5126,
			"count":2,
			"type":"VEC3"
		},
		{
			"bufferView":26,
			"componentType":5126,
			"count":2,
			"type":"VEC3"
		},
		{
			"bufferView":27,
			"componentType":5126,
			"count":2,
			"type":"VEC4"
		},
		{
			"bufferView":28,
			"componentType":5126,
			"count":2,
			"type":"VEC3"
		},
		{
			"bufferView":29,
			"componentType":5126,
			"count":2,
			"type":"VEC3"
		},
		{
			"bufferView":30,
			"componentType":5126,
			"count":2,
			"type":"VEC4"
		},
		{
			"bufferView":31,
			"componentType":5126,
			"count":2,
			"type":"VEC3"
		},
		{
			"bufferView":32,
			"componentType":5126,
			"count":2,
			"max":[
				10
			],
			"min":[
				0.041666666666666664
			],
			"type":"SCALAR"
		},
		{
			"bufferView":33,
			"componentType":5126,
			"count":2,
			"type":"VEC3"
		},
		{
			"bufferView":34,
			"componentType":5126,
			"count":2,
			"type":"VEC4"
		},
		{
			"bufferView":35,
			"componentType":5126,
			"count":2,
			"type":"VEC3"
		},
		{
			"bufferView":36,
			"componentType":5126,
			"count":2,
			"type":"VEC3"
		},
		{
			"bufferView":37,
			"componentType":5126,
			"count":2,
			"type":"VEC4"
		},
		{
			"bufferView":38,
			"componentType":5126,
			"count":2,
			"type":"VEC3"
		},
		{
			"bufferView":39,
			"componentType":5126,
			"count":240,
			"max":[
				10
			],
			"min":[
				0.041666666666666664
			],
			"type":"SCALAR"
		},
		{
			"bufferView":40,
			"componentType":5126,
			"count":240,
			"type":"VEC3"
		},
		{
			"bufferView":41,
			"componentType":5126,
			"count":2,
			"type":"VEC4"
		},
		{
			"bufferView":42,
			"componentType":5126,
			"count":2,
			"type":"VEC3"
		},
		{
			"bufferView":43,
			"componentType":5126,
			"count":2,
			"type":"VEC3"
		},
		{
			"bufferView":44,
			"componentType":5126,
			"count":2,
			"type":"VEC4"
		},
		{
			"bufferView":45,
			"componentType":5126,
			"count":2,
			"type":"VEC3"
		},
		{
			"bufferView":46,
			"componentType":5126,
			"count":2,
			"type":"VEC3"
		},
		{
			"bufferView":47,
			"componentType":5126,
			"count":2,
			"type":"VEC4"
		},
		{
			"bufferView":48,
			"componentType":5126,
			"count":2,
			"type":"VEC3"
		},
		{
			"bufferView":49,
			"componentType":5126,
			"count":2,
			"type":"VEC3"
		},
		{
			"bufferView":50,
			"componentType":5126,
			"count":2,
			"type":"VEC4"
		},
		{
			"bufferView":51,
			"componentType":5126,
			"count":2,
			"type":"VEC3"
		},
		{
			"bufferView":52,
			"componentType":5126,
			"count":2,
			"type":"VEC3"
		},
		{
			"bufferView":53,
			"componentType":5126,
			"count":2,
			"type":"VEC4"
		},
		{
			"bufferView":54,
			"componentType":5126,
			"count":2,
			"type":"VEC3"
		},
		{
			"bufferView":55,
			"componentType":5126,
			"count":2,
			"type":"VEC3"
		},
		{
			"bufferView":56,
			"componentType":5126,
			"count":2,
			"type":"VEC4"
		},
		{
			"bufferView":57,
			"componentType":5126,
			"count":2,
			"type":"VEC3"
		}
	],
	"bufferViews":[
		{
			"buffer":0,
			"byteLength":14100,
			"byteOffset":0,
			"target":34962
		},
		{
			"buffer":0,
			"byteLength":14100,
			"byteOffset":14100,
			"target":34962
		},
		{
			"buffer":0,
			"byteLength":9400,
			"byteOffset":28200,
			"target":34962
		},
		{
			"buffer":0,
			"byteLength":4700,
			"byteOffset":37600,
			"target":34962
		},
		{
			"buffer":0,
			"byteLength":18800,
			"byteOffset":42300,
			"target":34962
		},
		{
			"buffer":0,
			"byteLength":10596,
			"byteOffset":61100,
			"target":34963
		},
		{
			"buffer":0,
			"byteLength":512,
			"byteOffset":71696
		},
		{
			"buffer":0,
			"byteLength":8,
			"byteOffset":72208
		},
		{
			"buffer":0,
			"byteLength":24,
			"byteOffset":72216
		},
		{
			"buffer":0,
			"byteLength":32,
			"byteOffset":72240
		},
		{
			"buffer":0,
			"byteLength":24,
			"byteOffset":72272
		},
		{
			"buffer":0,
			"byteLength":24,
			"byteOffset":72296
		},
		{
			"buffer":0,
			"byteLength":32,
			"byteOffset":72320
		},
		{
			"buffer":0,
			"byteLength":24,
			"byteOffset":72352
		},
		{
			"buffer":0,
			"byteLength":24,
			"byteOffset":72376
		},
		{
			"buffer":0,
			"byteLength":32,
			"byteOffset":72400
		},
		{
			"buffer":0,
			"byteLength":24,
			"byteOffset":72432
		},
		{
			"buffer":0,
			"byteLength":24,
			"byteOffset":72456
		},
		{
			"buffer":0,
			"byteLength":32,
			"byteOffset":72480
		},
		{
			"buffer":0,
			"byteLength":24,
			"byteOffset":72512
		},
		{
			"buffer":0,
			"byteLength":24,
			"byteOffset":72536
		},
		{
			"buffer":0,
			"byteLength":32,
			"byteOffset":72560
		},
		{
			"buffer":0,
			"byteLength":24,
			"byteOffset":72592
		},
		{
			"buffer":0,
			"byteLength":24,
			"byteOffset":72616
		},
		{
			"buffer":0,
			"byteLength":32,
			"byteOffset":72640
		},
		{
			"buffer":0,
			"byteLength":24,
			"byteOffset":72672
		},
		{
			"buffer":0,
			"byteLength":24,
			"byteOffset":72696
		},
		{
			"buffer":0,
			"byteLength":32,
			"byteOffset":72720
		},
		{
			"buffer":0,
			"byteLength":24,
			"byteOffset":72752
		},
		{
			"buffer":0,
			"byteLength":24,
			"byteOffset":72776
		},
		{
			"buffer":0,
			"byteLength":32,
			"byteOffset":72800
		},
		{
			"buffer":0,
			"byteLength":24,
			"byteOffset":72832
		},
		{
			"buffer":0,
			"byteLength":8,
			"byteOffset":72856
		},
		{
			"buffer":0,
			"byteLength":24,
			"byteOffset":72864
		},
		{
			"buffer":0,
			"byteLength":32,
			"byteOffset":72888
		},
		{
			"buffer":0,
			"byteLength":24,
			"byteOffset":72920
		},
		{
			"buffer":0,
			"byteLength":24,
			"byteOffset":72944
		},
		{
			"buffer":0,
			"byteLength":32,
			"byteOffset":72968
		},
		{
			"buffer":0,
			"byteLength":24,
			"byteOffset":73000
		},
		{
			"buffer":0,
			"byteLength":960,
			"byteOffset":73024
		},
		{
			"buffer":0,
			"byteLength":2880,
			"byteOffset":73984
		},
		{
			"buffer":0,
			"byteLength":32,
			"byteOffset":76864
		},
		{
			"buffer":0,
			"byteLength":24,
			"byteOffset":76896
		},
		{
			"buffer":0,
			"byteLength":24,
			"byteOffset":76920
		},
		{
			"buffer":0,
			"byteLength":32,
			"byteOffset":76944
		},
		{
			"buffer":0,
			"byteLength":24,
			"byteOffset":76976
		},
		{
			"buffer":0,
			"byteLength":24,
			"byteOffset":77000
		},
		{
			"buffer":0,
			"byteLength":32,
			"byteOffset":77024
		},
		{
			"buffer":0,
			"byteLength":24,
			"byteOffset":77056
		},
		{
			"buffer":0,
			"byteLength":24,
			"byteOffset":77080
		},
		{
			"buffer":0,
			"byteLength":32,
			"byteOffset":77104
		},
		{
			"buffer":0,
			"byteLength":24,
			"byteOffset":77136
		},
		{
			"buffer":0,
			"byteLength":24,
			"byteOffset":77160
		},
		{
			"buffer":0,
			"byteLength":32,
			"byteOffset":77184
		},
		{
			"buffer":0,
			"byteLength":24,
			"byteOffset":77216
		},
		{
			"buffer":0,
			"byteLength":24,
			"byteOffset":77240
		},
		{
			"buffer":0,
			"byteLength":32,
			"byteOffset":77264
		},
		{
			"buffer":0,
			"byteLength":24,
			"byteOffset":77296
		}
	],
	"samplers":[
		{
			"magFilter":9729,
			"minFilter":9987
		}
	],
	"buffers":[
		{
			"byteLength":77320,
			"uri":"Pumpkin.bin"
		}
	]
}
