{
	"asset":{
		"generator":"Khronos glTF Blender I/O v4.2.0",
		"version":"2.0"
	},
	"extensionsUsed":[
		"KHR_materials_specular",
		"KHR_materials_ior"
	],
	"scene":0,
	"scenes":[
		{
			"name":"Scene",
			"nodes":[
				11
			]
		}
	],
	"nodes":[
		{
			"name":"Exit",
			"translation":[
				0,
				-48.47303009033203,
				2.5011104298755527e-12
			]
		},
		{
			"name":"HatTarget",
			"translation":[
				1.013019573292695e-05,
				185.1566619873047,
				-3.886190825141966e-06
			]
		},
		{
			"children":[
				1
			],
			"name":"LandTarget",
			"translation":[
				3.637978807091713e-12,
				-62.091896057128906,
				2.5011104298755527e-12
			]
		},
		{
			"children":[
				0,
				2
			],
			"name":"Direction",
			"translation":[
				0,
				8.284928298962768e-12,
				2.5011104298755527e-12
			]
		},
		{
			"children":[
				3
			],
			"name":"CamTarget",
			"translation":[
				3.9339101931545883e-05,
				92.39518737792969,
				3.2911793823586777e-06
			]
		},
		{
			"children":[
				4
			],
			"name":"JointRoot"
		},
		{
			"children":[
				5
			],
			"name":"AllRoot"
		},
		{
			"name":"Mustache",
			"translation":[
				0,
				125.6200942993164,
				36.16267013549805
			]
		},
		{
			"children":[
				7
			],
			"name":"BazookaElectric"
		},
		{
			"children":[
				6,
				8
			],
			"name":"nw4f_root",
			"rotation":[
				-0.7071067690849304,
				0,
				0,
				0.7071067690849304
			]
		},
		{
			"mesh":0,
			"name":"LockRocket__BodyMT",
			"skin":0
		},
		{
			"children":[
				10,
				9
			],
			"name":"Armature",
			"rotation":[
				0.70710688829422,
				0,
				0,
				0.7071066498756409
			],
			"scale":[
				0.02500000037252903,
				0.02500000037252903,
				0.02500000037252903
			]
		}
	],
	"materials":[
		{
			"alphaMode":"BLEND",
			"doubleSided":true,
			"extensions":{
				"KHR_materials_specular":{
					"specularFactor":0
				},
				"KHR_materials_ior":{
					"ior":1.4499999284744263
				}
			},
			"name":"BodyMT",
			"pbrMetallicRoughness":{
				"baseColorTexture":{
					"index":0
				},
				"metallicFactor":0,
				"roughnessFactor":0.5
			}
		}
	],
	"meshes":[
		{
			"name":"LockRocket__BodyMT",
			"primitives":[
				{
					"attributes":{
						"POSITION":0,
						"NORMAL":1,
						"TEXCOORD_0":2,
						"JOINTS_0":3,
						"WEIGHTS_0":4
					},
					"indices":5,
					"material":0
				}
			]
		}
	],
	"textures":[
		{
			"sampler":0,
			"source":0
		}
	],
	"images":[
		{
			"mimeType":"image/png",
			"name":"BazookaElectricBody_alb",
			"uri":"BazookaElectricBody_alb.png"
		}
	],
	"skins":[
		{
			"inverseBindMatrices":6,
			"joints":[
				9,
				6,
				5,
				4,
				3,
				0,
				2,
				1,
				8,
				7
			],
			"name":"Armature"
		}
	],
	"accessors":[
		{
			"bufferView":0,
			"componentType":5126,
			"count":904,
			"max":[
				1.2003200054168701,
				5.310451984405518,
				1.2003202438354492
			],
			"min":[
				-1.2003202438354492,
				-0.06610099226236343,
				-1.2003202438354492
			],
			"type":"VEC3"
		},
		{
			"bufferView":1,
			"componentType":5126,
			"count":904,
			"type":"VEC3"
		},
		{
			"bufferView":2,
			"componentType":5126,
			"count":904,
			"type":"VEC2"
		},
		{
			"bufferView":3,
			"componentType":5121,
			"count":904,
			"type":"VEC4"
		},
		{
			"bufferView":4,
			"componentType":5126,
			"count":904,
			"type":"VEC4"
		},
		{
			"bufferView":5,
			"componentType":5123,
			"count":2784,
			"type":"SCALAR"
		},
		{
			"bufferView":6,
			"componentType":5126,
			"count":10,
			"type":"MAT4"
		}
	],
	"bufferViews":[
		{
			"buffer":0,
			"byteLength":10848,
			"byteOffset":0,
			"target":34962
		},
		{
			"buffer":0,
			"byteLength":10848,
			"byteOffset":10848,
			"target":34962
		},
		{
			"buffer":0,
			"byteLength":7232,
			"byteOffset":21696,
			"target":34962
		},
		{
			"buffer":0,
			"byteLength":3616,
			"byteOffset":28928,
			"target":34962
		},
		{
			"buffer":0,
			"byteLength":14464,
			"byteOffset":32544,
			"target":34962
		},
		{
			"buffer":0,
			"byteLength":5568,
			"byteOffset":47008,
			"target":34963
		},
		{
			"buffer":0,
			"byteLength":640,
			"byteOffset":52576
		}
	],
	"samplers":[
		{
			"magFilter":9729,
			"minFilter":9987
		}
	],
	"buffers":[
		{
			"byteLength":53216,
			"uri":"Spacerocket.bin"
		}
	]
}
